<mxfile host="Electron" modified="2023-07-18T20:39:40.196Z" agent="Mozilla/5.0 (Windows NT 10.0; Win64; x64) AppleWebKit/537.36 (KHTML, like Gecko) draw.io/21.6.1 Chrome/112.0.5615.204 Electron/24.6.1 Safari/537.36" etag="48MUavFnkTvUZJA3NPmj" version="21.6.1" type="device">
  <diagram name="Страница 1" id="9AdSGZ-wU5dIfNWMVngr">
    <mxGraphModel dx="952" dy="636" grid="1" gridSize="10" guides="1" tooltips="1" connect="1" arrows="1" fold="1" page="1" pageScale="1" pageWidth="827" pageHeight="1169" math="0" shadow="0">
      <root>
        <mxCell id="0" />
        <mxCell id="1" parent="0" />
        <mxCell id="fwMDCeDDaVyuJN_M8xQI-4" value="" style="edgeStyle=orthogonalEdgeStyle;rounded=0;orthogonalLoop=1;jettySize=auto;html=1;labelBackgroundColor=none;fontColor=default;" edge="1" parent="1" target="fwMDCeDDaVyuJN_M8xQI-3">
          <mxGeometry relative="1" as="geometry">
            <mxPoint x="617" y="107" as="sourcePoint" />
          </mxGeometry>
        </mxCell>
        <mxCell id="fwMDCeDDaVyuJN_M8xQI-2" value="start" style="ellipse;whiteSpace=wrap;html=1;labelBackgroundColor=none;" vertex="1" parent="1">
          <mxGeometry x="556" y="27" width="120" height="80" as="geometry" />
        </mxCell>
        <mxCell id="fwMDCeDDaVyuJN_M8xQI-6" value="" style="edgeStyle=orthogonalEdgeStyle;rounded=0;orthogonalLoop=1;jettySize=auto;html=1;labelBackgroundColor=none;fontColor=default;" edge="1" parent="1" source="fwMDCeDDaVyuJN_M8xQI-43">
          <mxGeometry relative="1" as="geometry">
            <mxPoint x="617" y="207" as="targetPoint" />
          </mxGeometry>
        </mxCell>
        <mxCell id="fwMDCeDDaVyuJN_M8xQI-3" value="numStat" style="whiteSpace=wrap;html=1;labelBackgroundColor=none;" vertex="1" parent="1">
          <mxGeometry x="557" y="127" width="120" height="50" as="geometry" />
        </mxCell>
        <mxCell id="fwMDCeDDaVyuJN_M8xQI-22" value="end" style="ellipse;whiteSpace=wrap;html=1;aspect=fixed;labelBackgroundColor=none;" vertex="1" parent="1">
          <mxGeometry x="354" y="857" width="80" height="80" as="geometry" />
        </mxCell>
        <mxCell id="fwMDCeDDaVyuJN_M8xQI-97" style="edgeStyle=orthogonalEdgeStyle;rounded=0;orthogonalLoop=1;jettySize=auto;html=1;" edge="1" parent="1" source="fwMDCeDDaVyuJN_M8xQI-34" target="fwMDCeDDaVyuJN_M8xQI-98">
          <mxGeometry relative="1" as="geometry">
            <mxPoint x="660" y="577" as="targetPoint" />
            <Array as="points">
              <mxPoint x="660" y="447" />
            </Array>
          </mxGeometry>
        </mxCell>
        <mxCell id="fwMDCeDDaVyuJN_M8xQI-34" value="&lt;div style=&quot;font-family: &amp;quot;JetBrains Mono&amp;quot;, monospace;&quot;&gt;&lt;span style=&quot;background-color: rgb(255, 255, 255);&quot;&gt;numSut%7 == 0 &amp;amp;&amp;amp; numSut%23 == 0&lt;/span&gt;&lt;/div&gt;" style="rhombus;whiteSpace=wrap;html=1;labelBackgroundColor=none;" vertex="1" parent="1">
          <mxGeometry x="309.5" y="407" width="329" height="80" as="geometry" />
        </mxCell>
        <mxCell id="fwMDCeDDaVyuJN_M8xQI-46" value="Felse" style="text;html=1;strokeColor=none;fillColor=none;align=center;verticalAlign=middle;whiteSpace=wrap;rounded=0;" vertex="1" parent="1">
          <mxGeometry x="280" y="407" width="60" height="30" as="geometry" />
        </mxCell>
        <mxCell id="fwMDCeDDaVyuJN_M8xQI-73" value="true" style="text;html=1;strokeColor=none;fillColor=none;align=center;verticalAlign=middle;whiteSpace=wrap;rounded=0;" vertex="1" parent="1">
          <mxGeometry x="707" y="270" width="60" height="30" as="geometry" />
        </mxCell>
        <mxCell id="fwMDCeDDaVyuJN_M8xQI-79" value="" style="edgeStyle=orthogonalEdgeStyle;rounded=0;orthogonalLoop=1;jettySize=auto;html=1;labelBackgroundColor=none;fontColor=default;" edge="1" parent="1" source="fwMDCeDDaVyuJN_M8xQI-3" target="fwMDCeDDaVyuJN_M8xQI-43">
          <mxGeometry relative="1" as="geometry">
            <mxPoint x="617" y="177" as="sourcePoint" />
            <mxPoint x="617" y="207" as="targetPoint" />
          </mxGeometry>
        </mxCell>
        <mxCell id="fwMDCeDDaVyuJN_M8xQI-80" style="edgeStyle=orthogonalEdgeStyle;rounded=0;orthogonalLoop=1;jettySize=auto;html=1;entryX=0.5;entryY=0;entryDx=0;entryDy=0;" edge="1" parent="1" source="fwMDCeDDaVyuJN_M8xQI-43">
          <mxGeometry relative="1" as="geometry">
            <mxPoint x="616" y="267" as="targetPoint" />
          </mxGeometry>
        </mxCell>
        <mxCell id="fwMDCeDDaVyuJN_M8xQI-43" value="numStat==num" style="shape=parallelogram;perimeter=parallelogramPerimeter;whiteSpace=wrap;html=1;fixedSize=1;labelBackgroundColor=none;" vertex="1" parent="1">
          <mxGeometry x="557" y="207" width="120" height="40" as="geometry" />
        </mxCell>
        <mxCell id="fwMDCeDDaVyuJN_M8xQI-112" style="edgeStyle=orthogonalEdgeStyle;rounded=0;orthogonalLoop=1;jettySize=auto;html=1;entryX=1;entryY=0.5;entryDx=0;entryDy=0;" edge="1" parent="1" source="fwMDCeDDaVyuJN_M8xQI-98" target="fwMDCeDDaVyuJN_M8xQI-22">
          <mxGeometry relative="1" as="geometry">
            <Array as="points">
              <mxPoint x="560" y="577" />
              <mxPoint x="560" y="897" />
            </Array>
          </mxGeometry>
        </mxCell>
        <mxCell id="fwMDCeDDaVyuJN_M8xQI-98" value="print кратно и 7 и 23" style="shape=document;whiteSpace=wrap;html=1;boundedLbl=1;" vertex="1" parent="1">
          <mxGeometry x="600" y="537" width="120" height="80" as="geometry" />
        </mxCell>
        <mxCell id="fwMDCeDDaVyuJN_M8xQI-101" value="" style="edgeStyle=orthogonalEdgeStyle;rounded=0;orthogonalLoop=1;jettySize=auto;html=1;" edge="1" parent="1" source="fwMDCeDDaVyuJN_M8xQI-34" target="fwMDCeDDaVyuJN_M8xQI-100">
          <mxGeometry relative="1" as="geometry">
            <mxPoint x="280" y="537" as="targetPoint" />
            <mxPoint x="300" y="447" as="sourcePoint" />
            <Array as="points">
              <mxPoint x="280" y="447" />
            </Array>
          </mxGeometry>
        </mxCell>
        <mxCell id="fwMDCeDDaVyuJN_M8xQI-102" style="edgeStyle=orthogonalEdgeStyle;rounded=0;orthogonalLoop=1;jettySize=auto;html=1;" edge="1" parent="1" source="fwMDCeDDaVyuJN_M8xQI-100">
          <mxGeometry relative="1" as="geometry">
            <mxPoint x="480" y="617" as="targetPoint" />
          </mxGeometry>
        </mxCell>
        <mxCell id="fwMDCeDDaVyuJN_M8xQI-103" style="edgeStyle=orthogonalEdgeStyle;rounded=0;orthogonalLoop=1;jettySize=auto;html=1;" edge="1" parent="1" source="fwMDCeDDaVyuJN_M8xQI-100">
          <mxGeometry relative="1" as="geometry">
            <mxPoint x="160" y="617" as="targetPoint" />
          </mxGeometry>
        </mxCell>
        <mxCell id="fwMDCeDDaVyuJN_M8xQI-100" value="&#xa;&lt;span style=&quot;color: rgb(0, 0, 0); font-family: &amp;quot;JetBrains Mono&amp;quot;, monospace; font-size: 12px; font-style: normal; font-variant-ligatures: normal; font-variant-caps: normal; font-weight: 400; letter-spacing: normal; orphans: 2; text-align: center; text-indent: 0px; text-transform: none; widows: 2; word-spacing: 0px; -webkit-text-stroke-width: 0px; background-color: rgb(255, 255, 255); text-decoration-thickness: initial; text-decoration-style: initial; text-decoration-color: initial; float: none; display: inline !important;&quot;&gt;numSut%7 == 0&lt;/span&gt;&#xa;&#xa;" style="rhombus;whiteSpace=wrap;html=1;" vertex="1" parent="1">
          <mxGeometry x="180" y="497" width="200" height="80" as="geometry" />
        </mxCell>
        <mxCell id="fwMDCeDDaVyuJN_M8xQI-108" style="edgeStyle=orthogonalEdgeStyle;rounded=0;orthogonalLoop=1;jettySize=auto;html=1;" edge="1" parent="1" source="fwMDCeDDaVyuJN_M8xQI-104" target="fwMDCeDDaVyuJN_M8xQI-109">
          <mxGeometry relative="1" as="geometry">
            <mxPoint x="360" y="737" as="targetPoint" />
          </mxGeometry>
        </mxCell>
        <mxCell id="fwMDCeDDaVyuJN_M8xQI-111" style="edgeStyle=orthogonalEdgeStyle;rounded=0;orthogonalLoop=1;jettySize=auto;html=1;" edge="1" parent="1" source="fwMDCeDDaVyuJN_M8xQI-104">
          <mxGeometry relative="1" as="geometry">
            <mxPoint x="40" y="717" as="targetPoint" />
          </mxGeometry>
        </mxCell>
        <mxCell id="fwMDCeDDaVyuJN_M8xQI-104" value="&lt;br&gt;&lt;span style=&quot;color: rgb(0, 0, 0); font-family: &amp;quot;JetBrains Mono&amp;quot;, monospace; font-size: 12px; font-style: normal; font-variant-ligatures: normal; font-variant-caps: normal; font-weight: 400; letter-spacing: normal; orphans: 2; text-align: center; text-indent: 0px; text-transform: none; widows: 2; word-spacing: 0px; -webkit-text-stroke-width: 0px; background-color: rgb(255, 255, 255); text-decoration-thickness: initial; text-decoration-style: initial; text-decoration-color: initial; float: none; display: inline !important;&quot;&gt;numSut%23 == 0&lt;/span&gt;&lt;br&gt;" style="rhombus;whiteSpace=wrap;html=1;" vertex="1" parent="1">
          <mxGeometry x="60" y="617" width="200" height="80" as="geometry" />
        </mxCell>
        <mxCell id="fwMDCeDDaVyuJN_M8xQI-105" value="true" style="text;html=1;strokeColor=none;fillColor=none;align=center;verticalAlign=middle;whiteSpace=wrap;rounded=0;" vertex="1" parent="1">
          <mxGeometry x="374" y="507" width="60" height="30" as="geometry" />
        </mxCell>
        <mxCell id="fwMDCeDDaVyuJN_M8xQI-106" value="Felse" style="text;html=1;strokeColor=none;fillColor=none;align=center;verticalAlign=middle;whiteSpace=wrap;rounded=0;" vertex="1" parent="1">
          <mxGeometry x="140" y="507" width="60" height="30" as="geometry" />
        </mxCell>
        <mxCell id="fwMDCeDDaVyuJN_M8xQI-113" style="edgeStyle=orthogonalEdgeStyle;rounded=0;orthogonalLoop=1;jettySize=auto;html=1;entryX=0.958;entryY=0.242;entryDx=0;entryDy=0;entryPerimeter=0;" edge="1" parent="1" source="fwMDCeDDaVyuJN_M8xQI-107" target="fwMDCeDDaVyuJN_M8xQI-22">
          <mxGeometry relative="1" as="geometry" />
        </mxCell>
        <mxCell id="fwMDCeDDaVyuJN_M8xQI-107" value="кратно 7" style="shape=document;whiteSpace=wrap;html=1;boundedLbl=1;" vertex="1" parent="1">
          <mxGeometry x="414" y="617" width="120" height="80" as="geometry" />
        </mxCell>
        <mxCell id="fwMDCeDDaVyuJN_M8xQI-114" style="edgeStyle=orthogonalEdgeStyle;rounded=0;orthogonalLoop=1;jettySize=auto;html=1;entryX=0;entryY=0;entryDx=0;entryDy=0;" edge="1" parent="1" source="fwMDCeDDaVyuJN_M8xQI-109" target="fwMDCeDDaVyuJN_M8xQI-22">
          <mxGeometry relative="1" as="geometry">
            <Array as="points">
              <mxPoint x="320" y="830" />
              <mxPoint x="366" y="830" />
            </Array>
          </mxGeometry>
        </mxCell>
        <mxCell id="fwMDCeDDaVyuJN_M8xQI-109" value="кратно 23" style="shape=document;whiteSpace=wrap;html=1;boundedLbl=1;" vertex="1" parent="1">
          <mxGeometry x="280" y="722" width="120" height="80" as="geometry" />
        </mxCell>
        <mxCell id="fwMDCeDDaVyuJN_M8xQI-115" style="edgeStyle=orthogonalEdgeStyle;rounded=0;orthogonalLoop=1;jettySize=auto;html=1;entryX=0;entryY=0.5;entryDx=0;entryDy=0;" edge="1" parent="1" source="fwMDCeDDaVyuJN_M8xQI-110" target="fwMDCeDDaVyuJN_M8xQI-22">
          <mxGeometry relative="1" as="geometry" />
        </mxCell>
        <mxCell id="fwMDCeDDaVyuJN_M8xQI-110" value="ни кратно ни 7 ни 23" style="shape=document;whiteSpace=wrap;html=1;boundedLbl=1;" vertex="1" parent="1">
          <mxGeometry x="10" y="722" width="120" height="80" as="geometry" />
        </mxCell>
        <mxCell id="fwMDCeDDaVyuJN_M8xQI-116" value="true" style="text;html=1;strokeColor=none;fillColor=none;align=center;verticalAlign=middle;whiteSpace=wrap;rounded=0;" vertex="1" parent="1">
          <mxGeometry x="260" y="617" width="60" height="30" as="geometry" />
        </mxCell>
        <mxCell id="fwMDCeDDaVyuJN_M8xQI-118" value="Felse" style="text;html=1;strokeColor=none;fillColor=none;align=center;verticalAlign=middle;whiteSpace=wrap;rounded=0;" vertex="1" parent="1">
          <mxGeometry x="20" y="617" width="60" height="30" as="geometry" />
        </mxCell>
        <mxCell id="fwMDCeDDaVyuJN_M8xQI-121" style="edgeStyle=orthogonalEdgeStyle;rounded=0;orthogonalLoop=1;jettySize=auto;html=1;entryX=0.5;entryY=0;entryDx=0;entryDy=0;" edge="1" parent="1" source="fwMDCeDDaVyuJN_M8xQI-119" target="fwMDCeDDaVyuJN_M8xQI-34">
          <mxGeometry relative="1" as="geometry">
            <mxPoint x="470" y="400" as="targetPoint" />
            <Array as="points">
              <mxPoint x="474" y="310" />
            </Array>
          </mxGeometry>
        </mxCell>
        <mxCell id="fwMDCeDDaVyuJN_M8xQI-123" style="edgeStyle=orthogonalEdgeStyle;rounded=0;orthogonalLoop=1;jettySize=auto;html=1;" edge="1" parent="1" source="fwMDCeDDaVyuJN_M8xQI-119" target="fwMDCeDDaVyuJN_M8xQI-124">
          <mxGeometry relative="1" as="geometry">
            <mxPoint x="730" y="761.3333740234375" as="targetPoint" />
            <Array as="points">
              <mxPoint x="760" y="310" />
            </Array>
          </mxGeometry>
        </mxCell>
        <mxCell id="fwMDCeDDaVyuJN_M8xQI-119" value="If numStat == 0&amp;nbsp;" style="rhombus;whiteSpace=wrap;html=1;" vertex="1" parent="1">
          <mxGeometry x="530" y="270" width="177" height="80" as="geometry" />
        </mxCell>
        <mxCell id="fwMDCeDDaVyuJN_M8xQI-122" value="Felse" style="text;html=1;strokeColor=none;fillColor=none;align=center;verticalAlign=middle;whiteSpace=wrap;rounded=0;" vertex="1" parent="1">
          <mxGeometry x="470" y="270" width="60" height="30" as="geometry" />
        </mxCell>
        <mxCell id="fwMDCeDDaVyuJN_M8xQI-125" style="edgeStyle=orthogonalEdgeStyle;rounded=0;orthogonalLoop=1;jettySize=auto;html=1;entryX=0.5;entryY=1;entryDx=0;entryDy=0;" edge="1" parent="1" source="fwMDCeDDaVyuJN_M8xQI-124" target="fwMDCeDDaVyuJN_M8xQI-22">
          <mxGeometry relative="1" as="geometry">
            <Array as="points">
              <mxPoint x="700" y="940" />
              <mxPoint x="394" y="940" />
            </Array>
          </mxGeometry>
        </mxCell>
        <mxCell id="fwMDCeDDaVyuJN_M8xQI-124" value="Вы выбрали число 0" style="shape=document;whiteSpace=wrap;html=1;boundedLbl=1;" vertex="1" parent="1">
          <mxGeometry x="670" y="721.3333740234375" width="120" height="80" as="geometry" />
        </mxCell>
        <mxCell id="fwMDCeDDaVyuJN_M8xQI-126" value="true" style="text;html=1;strokeColor=none;fillColor=none;align=center;verticalAlign=middle;whiteSpace=wrap;rounded=0;" vertex="1" parent="1">
          <mxGeometry x="620" y="427" width="60" height="30" as="geometry" />
        </mxCell>
      </root>
    </mxGraphModel>
  </diagram>
</mxfile>
